<svg xmlns="http://www.w3.org/2000/svg" viewBox="0 0 128 128" role="img" aria-labelledby="title desc">
  <title id="title">Worthfolio</title>
  <desc id="desc">Worthfolio floating stone W app icon</desc>
  <defs>
    <linearGradient id="background" x1="0" y1="0" x2="1" y2="1"><stop offset="0" stop-color="#F6F2E9"/><stop offset="1" stop-color="#DED6C8"/></linearGradient>
    <linearGradient id="stone" x1="0" y1="0" x2="1" y2="1"><stop offset="0" stop-color="#FFFCF5"/><stop offset=".55" stop-color="#F3EFE6"/><stop offset="1" stop-color="#E4DDCF"/></linearGradient>
    <filter id="tileShadow" x="-25%" y="-25%" width="165%" height="180%"><feDropShadow dx="-1.2" dy="-1.8" stdDeviation="1.1" flood-color="#FFFFFF" flood-opacity=".95"/><feDropShadow dx="4" dy="6" stdDeviation="4.6" flood-color="#514A40" flood-opacity=".3"/></filter>
    <filter id="letterRelief" x="-22%" y="-22%" width="155%" height="165%"><feDropShadow dx="-.65" dy="-.9" stdDeviation=".4" flood-color="#FFFFFF" flood-opacity=".98"/><feDropShadow dx="1.15" dy="1.8" stdDeviation="1.15" flood-color="#6A6154" flood-opacity=".42"/></filter>
  </defs>
  <rect width="128" height="128" fill="url(#background)"/>
  <rect x="10" y="7" width="108" height="108" rx="11" fill="url(#stone)" stroke="#D8CFC1" stroke-width=".9" filter="url(#tileShadow)"/>
  <rect x="13.5" y="10.5" width="101" height="101" rx="8.5" fill="none" stroke="#FFFFFF" stroke-opacity=".48" stroke-width="1"/>
  <path d="M0 0 L30.1 0 L30.1 1.4 L19.7 1.4 L40.3 59.4 L40.5 59.4 L53.8 22.5 L46.2 1.4 L37.8 1.4 L37.8 0 L67.8 0 L67.8 1.4 L56.9 1.4 L77.5 59.4 L77.7 59.4 L98.7 1.4 L88 1.4 L88 0 L109.4 0 L109.4 1.4 L100.4 1.4 L74.5 72.7 L72 72.7 L54.8 24.7 L54.6 24.7 L37.2 72.7 L34.5 72.7 L9 1.4 L0 1.4 Z" transform="translate(29.39 37.5) scale(.633)" fill="#F7F2E8" stroke="#CFC4B3" stroke-width=".45" vector-effect="non-scaling-stroke" filter="url(#letterRelief)"/>
</svg>
